<?xml version="1.0" standalone="no"?>
<!DOCTYPE svg PUBLIC "-//W3C//DTD SVG 20010904//EN"
 "http://www.w3.org/TR/2001/REC-SVG-20010904/DTD/svg10.dtd">
<svg version="1.0" xmlns="http://www.w3.org/2000/svg"
 width="500.000000pt" height="500.000000pt" viewBox="0 0 500.000000 500.000000"
 preserveAspectRatio="xMidYMid meet">
<metadata>
Created by potrace 1.16, written by Peter Selinger 2001-2019
</metadata>
<g transform="translate(0.000000,500.000000) scale(0.100000,-0.100000)"
fill="#56be89 stroke="none">
<path d="M1609 3743 c-62 -60 -131 -126 -153 -148 -68 -66 -518 -498 -550
-527 l-30 -27 55 -58 c201 -214 306 -316 314 -303 5 8 4 11 -2 7 -5 -3 -79 66
-164 155 -85 88 -162 168 -172 178 -19 19 -36 1 303 326 69 66 172 166 230
221 58 56 148 142 200 192 52 50 92 91 88 91 -4 0 -57 -48 -119 -107z"/>
<path d="M2516 3792 l-19 -27 24 22 25 23 70 -73 c38 -39 119 -124 179 -187
61 -63 202 -211 315 -328 112 -117 208 -218 212 -225 5 -8 -23 -41 -76 -92
-491 -469 -636 -610 -636 -621 0 -3 22 16 48 42 27 27 149 146 273 264 350
336 409 393 409 400 0 4 -19 26 -42 51 -96 99 -558 580 -638 662 -47 49 -89
95 -93 103 -12 21 -30 16 -51 -14z"/>
<path d="M2439 3721 c-25 -25 -146 -143 -270 -261 -123 -118 -272 -261 -330
-318 l-106 -103 71 -73 c39 -40 168 -174 286 -297 118 -123 267 -277 330 -342
l116 -119 32 33 c17 18 30 35 27 37 -3 3 -14 -7 -26 -21 -11 -15 -26 -27 -33
-27 -7 0 -35 24 -62 53 -49 53 -408 426 -611 635 -62 64 -113 118 -113 122 0
4 33 38 73 76 63 61 381 366 596 572 41 40 73 74 70 76 -2 2 -25 -17 -50 -43z"/>
<path d="M3610 3715 c8 -11 37 -43 65 -71 27 -28 90 -93 140 -145 49 -52 179
-187 288 -301 l198 -207 -58 -58 c-33 -32 -113 -109 -179 -172 -197 -189 -344
-334 -344 -339 0 -4 159 147 465 442 l130 125 -45 48 c-25 25 -49 52 -55 58
-51 60 -625 648 -605 620z"/>
<path d="M3993 3198 c87 -90 165 -174 174 -187 17 -23 16 -24 -73 -109 -49
-47 -192 -185 -318 -306 -125 -122 -263 -255 -306 -296 -249 -239 -304 -293
-290 -286 8 5 38 31 65 58 69 67 244 235 356 342 132 126 333 319 477 460
l123 119 -78 81 c-191 198 -278 286 -283 286 -3 0 66 -73 153 -162z"/>
<path d="M900 2905 c19 -27 381 -407 715 -751 55 -56 168 -173 250 -260 83
-86 159 -165 169 -175 22 -21 55 -34 63 -25 4 3 -2 6 -12 6 -18 0 -79 60 -430
426 -93 97 -188 196 -210 218 -22 23 -144 149 -270 281 -292 304 -291 304
-275 280z"/>
</g>
</svg>
